<svg id="Layer_1" enable-background="new 0 0 512 512" height="512" viewBox="0 0 512 512" width="512" xmlns="http://www.w3.org/2000/svg"><g><path d="m329.953 334.906h-147.906c-35.655 0-64.559-28.904-64.559-64.559v-131.835c0-76.498 62.014-138.512 138.512-138.512s138.512 62.014 138.512 138.512v131.835c0 35.655-28.904 64.559-64.559 64.559z" fill="#685e68"/><path d="m256 0c-5.146 0-10.223.29-15.223.836 69.334 7.581 123.289 66.323 123.289 137.675v131.835c0 35.655-28.904 64.559-64.559 64.559h30.446c35.655 0 64.559-28.904 64.559-64.559v-131.834c0-76.498-62.014-138.512-138.512-138.512z" fill="#554e56"/><path d="m371.91 187.363h-8.003v-45.204h8.003c12.483 0 22.602 10.119 22.602 22.602 0 12.482-10.119 22.602-22.602 22.602z" fill="#ffcebf"/><path d="m140.09 187.363h8.003v-45.204h-8.003c-12.483 0-22.602 10.119-22.602 22.602 0 12.482 10.119 22.602 22.602 22.602z" fill="#ffb09e"/><g><path d="m459.804 501.851v-79.895c0-35.739-23.37-67.274-57.561-77.675l-86.691-26.371c-8.548-2.6-14.39-10.484-14.39-19.419v-32.597h-90.323v32.597c0 8.935-5.842 16.819-14.39 19.419l-86.691 26.371c-34.192 10.401-57.561 41.936-57.561 77.675v79.895c0 5.605 4.544 10.149 10.149 10.149h387.31c5.604 0 10.148-4.544 10.148-10.149z" fill="#ffcebf"/></g><g><path d="m402.243 344.281-86.691-26.371c-8.548-2.6-14.39-10.484-14.39-19.419v-32.597l-30.446 15.223v32.597c0 8.935 5.842 16.819 14.39 19.419l86.691 26.371c34.192 10.401 57.561 41.937 57.561 77.675v74.821h20.297c5.605 0 10.149-4.544 10.149-10.149v-79.895c0-35.738-23.37-67.274-57.561-77.675z" fill="#ffb09e"/></g><g><path d="m256 399.857c-4.204 0-7.611-3.408-7.611-7.611v-30.446c0-4.204 3.408-7.612 7.611-7.612s7.612 3.408 7.612 7.612v30.446c0 4.203-3.408 7.611-7.612 7.611z" fill="#efedef"/></g><path d="m194.911 318.378-14.728 4.48c.142.465.328.923.565 1.368 14.867 27.871 43.702 45.185 75.252 45.185s60.385-17.314 75.252-45.185c.237-.445.423-.903.565-1.368l-14.728-4.48c-12.412 22.124-35.676 35.81-61.089 35.81s-48.677-13.686-61.089-35.81z" fill="#f9f6f6"/><path d="m300.867 337.928 16.797 5.11c5.284-5.541 9.872-11.847 13.587-18.812.237-.445.423-.903.565-1.368l-8.488-2.582-6.24-1.898c-4.25 7.577-9.774 14.163-16.221 19.55z" fill="#efedef"/><g><g><path d="m363.907 142.159v43.488c0 43.281-25.481 80.611-62.26 97.805-4.591 2.146-16.865-.278-16.865-.278s-8.36 8.607-14.067 9.385c-4.934.673-9.974 1.012-15.097.994-59.638-.206-107.526-49.44-107.526-109.078v-42.316c17.277-1.317 42.653-5.466 70.213-18.609 13.799-6.581 25.212-14.017 34.335-20.963 2.028-1.544 4.784-1.679 6.94-.319 11.736 7.402 25.987 15.192 42.723 22.139 23.253 9.652 44.511 14.854 61.604 17.752z" fill="#ffcebf"/></g><path d="m333.461 185.647c0 20.604-6.943 49.566-26.681 71.034-32.816 35.693-88.552 27.987-95.942 26.855 8.558 3.943 21.302 8.539 37.315 9.729 0 0 3.898.276 7.465.288 59.771.206 108.289-48.184 108.289-107.907 0-19.183 0-24.305 0-43.488-9.032-1.531-19.227-3.706-30.264-6.84-1.332 19.008-.182 31.089-.182 50.329z" fill="#ffb09e"/><g><g><path d="m305.218 188.614c-4.204 0-7.611-3.408-7.611-7.611v-17.412c0-4.204 3.408-7.611 7.611-7.611 4.204 0 7.612 3.408 7.612 7.611v17.412c-.001 4.204-3.409 7.611-7.612 7.611z" fill="#685e68"/></g><g><path d="m206.782 188.614c-4.204 0-7.611-3.408-7.611-7.611v-17.412c0-4.204 3.408-7.611 7.611-7.611 4.204 0 7.611 3.408 7.611 7.611v17.412c.001 4.204-3.407 7.611-7.611 7.611z" fill="#685e68"/></g></g><g><path d="m256.006 246.988c-9.331 0-16.253-3.889-19.622-6.276-3.43-2.431-4.24-7.181-1.81-10.611 2.43-3.431 7.181-4.24 10.611-1.81 1.944 1.377 6.037 3.659 11.484 3.462 4.83-.173 8.425-2.24 10.138-3.457 3.427-2.434 8.179-1.63 10.613 1.797 2.435 3.427 1.63 8.178-1.797 10.613-3.787 2.691-10.056 5.961-18.408 6.26-.407.015-.811.022-1.209.022z" fill="#ffb09e"/></g></g><circle cx="256" cy="403.409" fill="#f58a97" r="17.76"/><path d="m256 385.649c-3.239 0-6.266.881-8.88 2.395 5.303 3.072 8.88 8.795 8.88 15.365s-3.577 12.293-8.88 15.365c2.614 1.514 5.641 2.395 8.88 2.395 9.809 0 17.76-7.951 17.76-17.76 0-9.808-7.951-17.76-17.76-17.76z" fill="#f07281"/><path d="m387.93 512v-12.448c0-17.557-6.464-33.881-17.115-46.547-1.715-2.04-2.692-4.597-2.692-7.262v-111.841l-30.446-9.262v101.994c0 2.002-1.893 3.433-3.833 2.938-5.442-1.387-11.124-2.128-16.968-2.127-22.372.005-42.323 10.354-55.34 26.522-2.839 3.527-8.234 3.527-11.073 0-13.017-16.168-32.968-26.517-55.34-26.522-5.843-.001-11.526.74-16.968 2.127-1.94.495-3.833-.936-3.833-2.938v-101.993l-30.446 9.262v111.841c0 2.665-.976 5.222-2.692 7.262-10.651 12.666-17.115 28.99-17.115 46.547v12.447z" fill="#f58a97"/><g><path d="m370.814 453.005c-1.715-2.04-2.692-4.597-2.692-7.262v-111.841l-30.446-9.262v6.025l10.639 3.236v111.841c0 2.665.976 5.222 2.692 7.262 10.651 12.666 17.115 28.99 17.115 46.547v12.449h19.807v-12.448c.001-17.557-6.463-33.881-17.115-46.547z" fill="#f07281"/></g><path d="m337.677 349.125 30.446 9.262v-24.485l-15.833-4.816-14.613-4.445z" fill="#f07281"/></g></svg>