<svg id="Capa_1" enable-background="new 0 0 512 512" height="512" viewBox="0 0 512 512" width="512" xmlns="http://www.w3.org/2000/svg"><g><g><path d="m433.13 469.896-41.779-53.896h-135.351l-10.667 64 10.667 32h177.13z" fill="#00b6be"/><path d="m120.648 416-41.778 53.897v42.103h177.13v-96z" fill="#00d7df"/></g><g><path d="m256 333.997-21.333 60.67 21.333 85.333 58.667-64v-82.003z" fill="#ffbd86"/><path d="m197.333 333.997v82.003l58.667 64v-146.003z" fill="#fed2a4"/></g><g><path id="XMLID_546_" d="m396.236 145h28.463v83.708l-28.463 28.995v13.463c0 31.108-16.042 58.54-40.287 74.457l-99.949 14.378-21.333-136.001 21.333-138.666z" fill="#ffbd86"/><path id="XMLID_513_" d="m115.763 145h-28.463v83.708l28.463 28.995v13.463c0 31.108 16.041 58.54 40.287 74.457l99.95 14.378v-274.667z" fill="#fed2a4"/></g><path d="m198.013 191.548h32.021v30h-32.021z" fill="#9d5c4b"/><path d="m281.965 191.548h32.021v30h-32.021z" fill="#6a3527"/><g><g><path d="m196.994 252.667-14.167-10.609c-11.5-8.612-25.745-13.355-40.112-13.355h-55.424v30h55.423c7.926 0 15.785 2.617 22.13 7.368l22.161 16.596h34.7z" fill="#c6e2e7"/></g><g><path d="m196.994 252.667-14.167-10.609c-11.5-8.612-25.745-13.355-40.112-13.355h-55.424v30h55.423c7.926 0 15.785 2.617 22.13 7.368l22.161 16.596h34.7z" fill="#00b6be"/></g></g><path d="m315.006 252.667 14.167-10.609c11.5-8.612 25.745-13.355 40.112-13.355h55.423v30h-55.423c-7.926 0-15.785 2.617-22.13 7.368l-22.161 16.596h-34.7z" fill="#00969c"/><path d="m315.006 252.667 40.92 92.952c-12.316 8.082-26.739 13.207-42.26 14.321l-57.666.061-21.333-50.668 21.333-57z" fill="#efe2dd"/><path d="m320 454.333h53.333v30h-53.333z" fill="#e4f2f7"/><g><path d="m396.236 0h-172.236l-21.333 53.333 21.333 56.004c23.771 22.603 55.731 35.663 88.925 35.663h51.29v52.667h32.022z" fill="#bb7c14"/><path d="m205.478 0c-49.469 0-89.715 40.246-89.715 89.715v107.951h32.021v-52.778c30.827-1.18 54.374-12.249 75.804-35.937.136.13.275.256.411.385v-109.336z" fill="#d98f19"/></g><path d="m196.994 252.667-40.92 92.952c12.316 8.082 26.739 13.207 42.26 14.321l57.666.061v-107.668z" fill="#f7f0eb"/></g></svg>