<svg id="Capa_1" enable-background="new 0 0 495.456 495.456" height="512" viewBox="0 0 495.456 495.456" width="512" xmlns="http://www.w3.org/2000/svg"><g><path d="m301.318 354.866-14.04-7.04c-.87-.43-1.42-1.32-1.42-2.29l-.56-73.92h-74.7v73.91c0 .98-.55 1.87-1.43 2.3l-14.04 7.04-13.172 24.747 88.663 11.739 36.375-29.241z" fill="#ffbd86"/><path d="m172.695 281.491v79.713c0 12.435-6.906 23.841-17.925 29.605l-30.202 15.797c-3.241 1.695-6.834-1.578-5.447-4.963l4.001-9.762c.306-.746.463-1.545.463-2.352v-118.891c0-14.348 6.58-27.903 17.853-36.779l8.543-6.726 43.147-28.797 1.97 51.257z" fill="#918291"/><g><path d="m336.455 171.772 1.259-1.8c11.763-16.813 18.072-36.836 18.072-57.356v-5.058c0-59.403-48.155-107.558-107.558-107.558-59.403 0-107.558 48.155-107.558 107.558v5.058c0 20.519 6.309 40.543 18.072 57.356l1.259 1.8 28.598 34.385h126.912z" fill="#918291"/><g fill="#f6a96c"><path d="m157.56 227.133c-13.954 0-25.267-11.312-25.267-25.267 0-13.954 11.312-25.267 25.267-25.267h35.569v50.533h-35.569z"/><path d="m339.895 227.133c13.954 0 25.267-11.312 25.267-25.267 0-13.954-11.312-25.267-25.267-25.267h-40.082v50.533h40.082z"/><path d="m242.643 354.728c0-8.036 5.99-14.809 13.967-15.782 9.823-1.198 22.357-3.211 29.153-5.999l-.465-61.332h-53.488-21.212v73.91c0 .98-.55 1.87-1.43 2.3l-14.04 7.04-13.172 24.747 21.734 2.877 32.832-16.512c3.734-1.878 6.098-5.694 6.115-9.874z"/></g><path d="m332.878 144.016v96.23c0 23.51-9.53 44.8-24.94 60.21s-36.69 24.94-60.21 24.94c-47.03 0-85.15-38.12-85.15-85.15v-96.23c31.04-7.15 58.64-24.87 78.07-50.11l4.33-5.63c1.39-1.81 4.11-1.81 5.5 0l4.33 5.63c19.36 25.16 46.84 42.84 77.76 50.04.2.05.31.07.31.07z" fill="#ffbd86"/><path d="m240.008 117.587 5.027-6.537c1.614-2.102 4.772-2.102 6.386 0l5.027 6.537c19.541 25.395 46.209 44.222 76.43 54.202v-27.773s-.11-.02-.31-.07c-30.92-7.2-58.4-24.88-77.76-50.04l-4.33-5.63c-1.39-1.81-4.11-1.81-5.5 0l-4.33 5.63c-19.43 25.24-47.03 42.96-78.07 50.11v28.102c30.628-9.891 57.668-28.86 77.43-54.531z" fill="#f6a96c"/><path d="m409.688 481.39-1.91-30.895c-1.233-19.911-10.217-38.226-24.547-51.331l-7.75 5.258-61.612-29.09-5.027-16.695-7.523-3.773-2.37 2.84c-26.41 31.64-75.03 31.64-101.44 0l-2.38-2.84-71.69 35.97c-20.79 12.88-34.24 35.12-35.77 59.82l-1.9 30.735c-.471 7.624 5.584 14.065 13.223 14.065h297.475c7.637.002 13.693-6.44 13.221-14.064z" fill="#dfa8d2"/><path d="m119.712 466.498c1.53-24.7 14.98-46.94 35.77-59.82l63.697-31.959c-8.06-3.94-15.481-9.595-21.672-17.012l-2.38-2.84-71.69 35.97c-20.79 12.88-34.24 35.12-35.77 59.82l-1.9 30.735c-.471 7.624 5.584 14.065 13.223 14.065h18.932z" fill="#d691c6"/><g id="XMLID_504_"><g><path d="m366.058 387.336-7.75-3.89-14.651 2.14-53.009 84.906v24.964h67.92c12.1-21.31 19.6-44.92 22-69.31l2.671-26.986c-5.08-4.671-10.851-8.655-17.181-11.824z" fill="#fee97d"/><path d="m330.728 369.616-21.887-10.977s-48.303 97.987-158.863 114.187v22.63h70.1l29.485-9.408 30.632-25.212 55.373-71.631z" fill="#fee97d"/><path d="m358.308 383.446-7.29 20.46c-11.89 35.21-32.69 66.75-60.37 91.55h-70.57c72.2-34.76 110.83-125.75 110.65-125.84z" fill="#fed402"/></g></g><g><path d="m247.728 143.344c-4.142 0-7.5-3.357-7.5-7.5v-4.68c0-4.143 3.358-7.5 7.5-7.5 4.143 0 7.5 3.357 7.5 7.5v4.68c0 4.143-3.358 7.5-7.5 7.5z" fill="#f37c7c"/></g><g><path d="m188.603 184.099c-2.107 0-4.201-.883-5.685-2.604-2.704-3.138-2.353-7.873.785-10.578l6.998-6.031c3.186-2.744 7.255-4.256 11.458-4.256h17.921c4.142 0 7.5 3.357 7.5 7.5s-3.358 7.5-7.5 7.5h-17.92c-.611 0-1.203.22-1.667.619l-6.997 6.031c-1.417 1.222-3.159 1.819-4.893 1.819z" fill="#918291"/></g><g><path d="m209.223 204.012c-4.142 0-7.5-3.357-7.5-7.5v-4.271c0-4.143 3.358-7.5 7.5-7.5s7.5 3.357 7.5 7.5v4.271c0 4.143-3.358 7.5-7.5 7.5z" fill="#918291"/></g><g><path d="m306.853 184.099c-1.734 0-3.478-.598-4.894-1.819l-6.997-6.031c-.463-.398-1.055-.618-1.666-.618h-17.922c-4.143 0-7.5-3.357-7.5-7.5s3.357-7.5 7.5-7.5h17.922c4.203 0 8.272 1.511 11.457 4.255l6.999 6.033c3.138 2.704 3.488 7.439.784 10.577-1.483 1.72-3.577 2.603-5.683 2.603z" fill="#918291"/></g><g><path d="m286.233 204.012c-4.143 0-7.5-3.357-7.5-7.5v-4.271c0-4.143 3.357-7.5 7.5-7.5s7.5 3.357 7.5 7.5v4.271c0 4.143-3.358 7.5-7.5 7.5z" fill="#918291"/></g><path d="m261.735 218.42v2.478c0 6.505-5.274 11.779-11.779 11.779h-3.456c-6.505 0-11.779-5.274-11.779-11.779v-2.478c0-2.605 2.111-4.716 4.716-4.716h17.582c2.604 0 4.716 2.112 4.716 4.716z" fill="#f6a96c"/><g><path d="m223.191 274.186c-2.751 0-5.4-1.52-6.714-4.147-1.853-3.705-.351-8.21 3.354-10.063l12.353-6.177c3.745-1.872 8.2-1.842 11.918.081l3.625 1.874 3.626-1.874c3.715-1.923 8.171-1.955 11.917-.082l12.354 6.178c3.705 1.853 5.206 6.357 3.354 10.063-1.852 3.705-6.355 5.209-10.063 3.354l-11.51-5.755-3.641 1.882c-3.78 1.955-8.294 1.954-12.075.001l-3.642-1.883-11.51 5.755c-1.074.537-2.219.793-3.346.793z" fill="#f37c7c"/></g><g><path d="m247.879 293.47c-4.907 0-9.813-1.45-14.094-4.35l-.684-.464c-3.428-2.324-4.323-6.988-1.998-10.416 2.326-3.428 6.989-4.323 10.417-1.998l.681.462c3.443 2.332 7.897 2.335 11.347.005l.705-.477c3.435-2.317 8.096-1.413 10.413 2.021s1.412 8.096-2.021 10.413l-.703.475c-4.272 2.886-9.167 4.329-14.063 4.329z" fill="#f37c7c"/></g></g><path d="m157.482 495.453v-52.984c0-4.143-3.358-7.5-7.5-7.5s-7.5 3.357-7.5 7.5v52.984.003h15c0-.001 0-.002 0-.003z" fill="#d691c6"/></g></svg>