<svg width="22" height="23" viewBox="0 0 22 23" fill="none" xmlns="http://www.w3.org/2000/svg">
<path d="M11 0C4.93533 0 0 5.14991 0 11.4783C0 17.8066 4.93533 22.9565 11 22.9565C17.0647 22.9565 22 17.8066 22 11.4783C22 5.14991 17.0647 0 11 0ZM11 1.91304C16.0737 1.91304 20.1667 6.18391 20.1667 11.4783C20.1689 13.7681 19.382 15.9825 17.9496 17.7173C16.5171 19.452 14.5347 20.5915 12.364 20.9277V14.2675H14.9747L15.3844 11.5003H12.364V9.98896C12.364 8.84113 12.7261 7.82052 13.7555 7.82052H15.4101V5.40626C15.1195 5.36513 14.5044 5.27617 13.3421 5.27617C10.9148 5.27617 9.49208 6.61339 9.49208 9.66087V11.5003H6.99692V14.2675H9.49208V20.9038C7.35144 20.5362 5.4058 19.3863 4.0028 17.6596C2.5998 15.933 1.83085 13.742 1.83333 11.4783C1.83333 6.18391 5.92625 1.91304 11 1.91304Z" fill="white"/>
</svg>
